HIERARCHY
ROOT Hips
{
	OFFSET 0.000000 0.000000 0.000000
	CHANNELS 6 Xposition Yposition Zposition Xrotation Yrotation Zrotation
	JOINT LeftUpLeg_virtual
	{
		OFFSET 0.000000 0.000000 0.000000
		CHANNELS 3 Xrotation Yrotation Zrotation
		JOINT LeftUpLeg
		{
			OFFSET 13.026900 -6.336304 -1.092800
			CHANNELS 3 Xrotation Yrotation Zrotation
			JOINT LeftLeg
			{
				OFFSET 0.524474 -46.096886 9.782700
				CHANNELS 3 Xrotation Yrotation Zrotation
				JOINT LeftFoot
				{
					OFFSET -0.524474 -53.427422 -12.948200
					CHANNELS 3 Xrotation Yrotation Zrotation
					JOINT LeftToeBase
					{
						OFFSET 0.192200 -14.009700 16.364100
						CHANNELS 3 Xrotation Yrotation Zrotation
						JOINT LeftToe_End
						{
							OFFSET -1.784700 -0.561700 9.474800
							CHANNELS 3 Xrotation Yrotation Zrotation
							End Site
							{
								OFFSET 0 0 0
							}
						}
					}
				}
			}
		}
	}
	JOINT RightUpLeg_virtual
	{
		OFFSET 0.000000 0.000000 0.000000
		CHANNELS 3 Xrotation Yrotation Zrotation
		JOINT RightUpLeg
		{
			OFFSET -12.883000 -6.336304 -1.092800
			CHANNELS 3 Xrotation Yrotation Zrotation
			JOINT RightLeg
			{
				OFFSET -0.524587 -46.096825 9.782800
				CHANNELS 3 Xrotation Yrotation Zrotation
				JOINT RightFoot
				{
					OFFSET 0.524587 -53.427383 -12.948300
					CHANNELS 3 Xrotation Yrotation Zrotation
					JOINT RightToeBase
					{
						OFFSET -0.192200 -14.009700 16.364100
						CHANNELS 3 Xrotation Yrotation Zrotation
						JOINT RightToe_End
						{
							OFFSET 1.784700 -0.561700 9.474800
							CHANNELS 3 Xrotation Yrotation Zrotation
							End Site
							{
								OFFSET 0 0 0
							}
						}
					}
				}
			}
		}
	}
	JOINT Spine_virtual
	{
		OFFSET 0.000000 0.000000 0.000000
		CHANNELS 3 Xrotation Yrotation Zrotation
		JOINT Spine
		{
			OFFSET 0.072000 7.257294 -0.789700
			CHANNELS 3 Xrotation Yrotation Zrotation
			JOINT Spine1
			{
				OFFSET 0.000000 12.508769 -0.658067
				CHANNELS 3 Xrotation Yrotation Zrotation
				JOINT Spine1_split
				{
					OFFSET 0.000000 12.508769 -0.658067
					CHANNELS 3 Xrotation Yrotation Zrotation
					JOINT Spine2
					{
						OFFSET 0.000000 12.508769 -0.658067
						CHANNELS 3 Xrotation Yrotation Zrotation
						JOINT Neck_virtual
						{
							OFFSET 0.000000 0.000000 0.000000
							CHANNELS 3 Xrotation Yrotation Zrotation
							JOINT Neck
							{
								OFFSET 0.000000 14.033295 7.520400
								CHANNELS 3 Xrotation Yrotation Zrotation
								JOINT Head
								{
									OFFSET 0.000000 8.198502 5.703100
									CHANNELS 3 Xrotation Yrotation Zrotation
									JOINT HeadTop_End
									{
										OFFSET 0.000000 17.760803 13.332701
										CHANNELS 3 Xrotation Yrotation Zrotation
										End Site
										{
											OFFSET 0 0 0
										}
									}
								}
							}
						}
						JOINT LeftShoulder_virtual
						{
							OFFSET 0.000000 0.000000 0.000000
							CHANNELS 3 Xrotation Yrotation Zrotation
							JOINT LeftShoulder
							{
								OFFSET 6.292450 5.785301 -0.669000
								CHANNELS 3 Xrotation Yrotation Zrotation
								JOINT LeftShoulder_split
								{
									OFFSET 6.292450 5.785301 -0.669000
									CHANNELS 3 Xrotation Yrotation Zrotation
									JOINT LeftArm
									{
										OFFSET 13.907140 -6.093903 1.965100
										CHANNELS 3 Xrotation Yrotation Zrotation
										JOINT LeftForeArm
										{
											OFFSET 34.140198 0.000000 0.000000
											CHANNELS 3 Xrotation Yrotation Zrotation
											JOINT LeftHand
											{
												OFFSET 40.960209 0.000000 0.000000
												CHANNELS 3 Xrotation Yrotation Zrotation
												End Site
												{
													OFFSET 0 0 0
												}
											}
										}
									}
								}
							}
						}
						JOINT RightShoulder_virtual
						{
							OFFSET 0.000000 0.000000 0.000000
							CHANNELS 3 Xrotation Yrotation Zrotation
							JOINT RightShoulder
							{
								OFFSET -6.292450 5.785301 -0.669000
								CHANNELS 3 Xrotation Yrotation Zrotation
								JOINT RightShoulder_split
								{
									OFFSET -6.292450 5.785301 -0.669000
									CHANNELS 3 Xrotation Yrotation Zrotation
									JOINT RightArm
									{
										OFFSET -13.907140 -6.093903 1.965100
										CHANNELS 3 Xrotation Yrotation Zrotation
										JOINT RightForeArm
										{
											OFFSET -34.140198 0.000000 0.000000
											CHANNELS 3 Xrotation Yrotation Zrotation
											JOINT RightHand
											{
												OFFSET -40.960209 0.000000 0.000000
												CHANNELS 3 Xrotation Yrotation Zrotation
												End Site
												{
													OFFSET 0 0 0
												}
											}
										}
									}
								}
							}
						}
					}
				}
			}
		}
	}
}
MOTION
Frames: 4
Frame Time: 0.03333333
-0.184258 120.968033 -21.069866 0.000000 0.000000 0.000000 -3.942346 5.994083 5.059694 -6.613687 21.230958 -2.897121 7.362468 2.331523 3.548506 0.907789 2.358377 -2.910532 -1.517162 -1.888010 -0.047479 0.000000 0.000000 0.000000 -3.579187 5.216127 4.878610 -6.457919 -8.663314 -3.734026 13.984092 3.975934 -3.167563 -5.287515 -15.508814 11.680923 0.508163 4.242429 -10.989193 0.000000 0.000000 0.000000 -6.225853 14.358050 5.721023 8.492883 -6.544663 -1.552244 8.961005 3.439904 -3.155008 0.047657 -0.757860 -0.102509 0.000000 0.000000 0.000000 8.551917 5.903502 -1.756920 8.426463 5.961209 11.019940 18.029140 -57.274090 2.183404 0.000000 0.000000 0.000000 8.588876 5.425882 -2.750040 1.125796 -11.790548 -23.090243 6.110867 -9.731566 -5.511485 -4.627320 -48.955610 -38.636130 12.109375 -19.960828 8.749864 0.000000 0.000000 0.000000 7.744589 3.390054 -3.371820 -1.348850 20.463595 24.693514 -3.685308 -0.919385 5.031803 5.250429 40.159713 40.526774 11.125789 35.025196 3.867705 0.000000 0.000000 0.000000 
0.547707 121.931992 -21.257908 0.000000 0.000000 0.000000 -4.950670 4.304464 5.945060 -3.355038 22.495925 -4.160941 4.569635 2.409444 3.227009 1.052863 2.831097 -3.214197 -0.636765 -1.764268 -0.112026 0.000000 0.000000 0.000000 -4.564652 4.505616 5.705337 -4.449150 -9.591502 -4.450161 11.811264 4.379817 -2.957623 -5.874838 -14.984405 10.288928 1.174344 3.960340 -10.691395 0.000000 0.000000 0.000000 -7.561568 13.401464 6.185717 8.242495 -6.428940 -2.113995 7.752153 2.539194 -3.359431 0.126492 -0.736864 0.039081 0.000000 0.000000 0.000000 7.456012 5.050847 -1.714474 7.706261 6.373064 9.576171 15.112142 -50.886757 1.965258 0.000000 0.000000 0.000000 7.310206 4.682291 -2.656530 1.929470 -8.366668 -20.286890 5.399737 -8.988169 -4.073063 -5.353489 -46.518912 -43.846700 13.504565 -18.337424 10.485277 0.000000 0.000000 0.000000 6.356959 2.405398 -3.328486 -0.100274 18.537936 22.532290 -4.354174 -1.532046 4.038280 9.558397 43.357624 40.715458 13.313282 37.273995 2.497812 0.000000 0.000000 0.000000 
1.113082 122.437866 -21.351330 0.000000 0.000000 0.000000 -5.579958 2.780070 6.643900 -1.018455 23.096018 -5.044459 2.845663 2.468443 2.923171 1.167886 3.171526 -3.356417 -0.032050 -1.612919 -0.321605 0.000000 0.000000 0.000000 -5.338605 3.930815 6.438322 -3.481696 -10.506181 -5.217764 10.666496 4.889484 -2.740923 -5.988659 -14.741968 10.217587 1.173709 3.778031 -10.793538 0.000000 0.000000 0.000000 -8.178065 12.606521 6.338485 7.841195 -6.229767 -2.545700 6.664528 1.805699 -3.552146 0.135440 -0.648944 0.155313 0.000000 0.000000 0.000000 6.571347 4.367661 -1.739031 7.360697 6.309288 8.322626 10.604723 -45.846002 0.859728 0.000000 0.000000 0.000000 6.179288 4.071061 -2.639811 2.514731 -5.943187 -16.796799 5.063690 -8.545315 -2.612864 -4.143460 -42.697848 -47.272231 16.081180 -18.840255 12.303663 0.000000 0.000000 0.000000 4.952397 1.625565 -3.237223 1.173274 15.930974 19.780621 -4.711934 -2.248267 3.039406 12.705149 44.829202 41.006017 14.687224 40.960781 1.908271 0.000000 0.000000 0.000000 
1.492232 122.567444 -21.447941 0.000000 0.000000 0.000000 -5.998139 1.679989 7.094649 0.103074 23.115491 -5.383692 2.315797 2.398350 2.665799 1.426930 3.229769 -3.551428 0.104852 -1.432081 -0.726924 0.000000 0.000000 0.000000 -5.916045 3.460309 6.962763 -3.358853 -11.110874 -5.969144 10.326035 5.600392 -2.563331 -5.686925 -14.643610 11.380963 0.623917 3.682454 -11.125366 0.000000 0.000000 0.000000 -8.220025 11.861296 6.265802 7.278372 -5.855829 -2.636701 5.759770 1.327033 -3.744790 0.155799 -0.614615 0.215177 0.000000 0.000000 0.000000 5.922904 3.929178 -1.851132 7.062786 5.807767 7.386868 4.745131 -41.948017 -1.305234 0.000000 0.000000 0.000000 5.281480 3.621213 -2.800615 2.896676 -4.787600 -13.162802 4.654269 -8.307794 -1.892809 -2.137355 -37.299294 -49.377148 19.750272 -20.531129 14.119686 0.000000 0.000000 0.000000 3.682580 1.183128 -3.147919 2.244169 13.062947 16.820038 -5.436180 -2.925065 2.556226 14.329455 44.552713 41.442863 14.975550 44.042286 2.453853 0.000000 0.000000 0.000000 
